# xmcd
#
# Track frame offsets:
#	150
#	19474
#	39927
#	52869
#	70394
#	87296
#	101182
#	123403
#	140347
#	156835
#	174275
#	190412
#	203527
#
# Disc length: 2994 seconds
#
# Revision: 0
# Processed by: cddbd v1.5.2PL0 Copyright (c) Steve Scherf et al.
# Submitted via: audiograbber 1.83.01
#
DISCID=ad0bb00d
DTITLE=MT Allan - The Road Goes On Forever And The Party Never Ends
DYEAR=2011
DGENRE=Covers
TTITLE0=01 - Hand of fate - Lunn, Noble
TTITLE1=02 - Only in America - Brooke, Rogers, Cook
TTITLE2=03 - A little Less talk and a lot more action - Hinton, Stewart
TTITLE3=04 - Jacksonville - Laughlin, Turner
TTITLE4=05 - White rose - Eaglesmith
TTITLE5=06 - Galway girl - Earl
TTITLE6=07 - Tougher than the rest - Springsteen
TTITLE7=08 - Would you go with me - Camp, Sherill
TTITLE8=09 - I told you so - Travis
TTITLE9=10 - Sombody like you - Shanks, Urban
TTITLE10=11 - Don' t tell me you're not in love - Williams, Coulton, Wood
TTITLE11=12 - Here comes my baby - Stevens
TTITLE12=13 - The road goes on forever - Keen
EXTD=This album was recorded almost entirely at Mirage Studios with the collabo
EXTD=ration of John P. Taylor. Thanks to the team at NAM.\nProduced by M.T. All
EXTD=an.\nEngineered by John P. Taylor.\nThis is Malc's  first solo creation.\n
EXTD=Further information: Les Evans at NAMstars, 01702 602627
EXTT0=
EXTT1=
EXTT2=
EXTT3=
EXTT4=
EXTT5=
EXTT6=
EXTT7=
EXTT8=
EXTT9=
EXTT10=
EXTT11=
EXTT12=
PLAYORDER=
